<?xml version="1.0" encoding="UTF-8" standalone="no"?>
<!DOCTYPE svg PUBLIC "-//W3C//DTD SVG 1.1//EN"
 "http://www.w3.org/Graphics/SVG/1.1/DTD/svg11.dtd">
<!-- Generated by graphviz version 2.36.0 (20140111.2315)
 -->
<!-- Title: G Pages: 1 -->
<svg width="422pt" height="1374pt"
 viewBox="0.00 0.00 422.00 1374.00" xmlns="http://www.w3.org/2000/svg" xmlns:xlink="http://www.w3.org/1999/xlink">
<g id="graph0" class="graph" transform="scale(1 1) rotate(0) translate(4 1370)">
<title>G</title>
<polygon fill="white" stroke="none" points="-4,4 -4,-1370 418,-1370 418,4 -4,4"/>
<g id="clust1" class="cluster"><title>cluster_Global</title>
<path fill="none" stroke="gray" d="M20,-44C20,-44 394,-44 394,-44 400,-44 406,-50 406,-56 406,-56 406,-1346 406,-1346 406,-1352 400,-1358 394,-1358 394,-1358 20,-1358 20,-1358 14,-1358 8,-1352 8,-1346 8,-1346 8,-56 8,-56 8,-50 14,-44 20,-44"/>
<text text-anchor="middle" x="207" y="-1345.2" font-family="Times,serif" font-size="11.00" fill="gray">Global</text>
</g>
<!-- \\WPT_Event_Editor -->
<g id="node1" class="node"><title>\\WPT_Event_Editor</title>
<polygon fill="none" stroke="black" points="357.5,-1330 232.5,-1330 232.5,-1294 357.5,-1294 357.5,-1330"/>
<text text-anchor="middle" x="295" y="-1309.2" font-family="Courier,monospace" font-size="11.00">WPT_Event_Editor</text>
</g>
<!-- \\WPT_Admin -->
<g id="node2" class="node"><title>\\WPT_Admin</title>
<polygon fill="none" stroke="black" points="333.5,-1276 256.5,-1276 256.5,-1240 333.5,-1240 333.5,-1276"/>
<text text-anchor="middle" x="295" y="-1255.2" font-family="Courier,monospace" font-size="11.00">WPT_Admin</text>
</g>
<!-- \\WPT_Calendar -->
<g id="node3" class="node"><title>\\WPT_Calendar</title>
<polygon fill="none" stroke="black" points="344,-1222 246,-1222 246,-1186 344,-1186 344,-1222"/>
<text text-anchor="middle" x="295" y="-1201.2" font-family="Courier,monospace" font-size="11.00">WPT_Calendar</text>
</g>
<!-- \\WPT_Calendar_Widget -->
<g id="node4" class="node"><title>\\WPT_Calendar_Widget</title>
<polygon fill="none" stroke="black" points="367.5,-520 222.5,-520 222.5,-484 367.5,-484 367.5,-520"/>
<text text-anchor="middle" x="295" y="-499.2" font-family="Courier,monospace" font-size="11.00">WPT_Calendar_Widget</text>
</g>
<!-- \\WP_Widget -->
<g id="node26" class="node"><title>\\WP_Widget</title>
<ellipse fill="none" stroke="black" cx="62" cy="-18" rx="57.6901" ry="18"/>
<text text-anchor="middle" x="62" y="-14.3" font-family="Times,serif" font-size="14.00" fill="gray">\WP_Widget</text>
</g>
<!-- \\WPT_Calendar_Widget&#45;&gt;\\WP_Widget -->
<g id="edge1" class="edge"><title>\\WPT_Calendar_Widget&#45;&gt;\\WP_Widget</title>
<path fill="none" stroke="black" d="M222.286,-494.239C210.854,-490.071 200.135,-483.944 192,-475 60.1497,-330.027 243.713,-191.976 120,-40 118.558,-38.2288 116.956,-36.5999 115.23,-35.1018"/>
<polygon fill="none" stroke="black" points="117.188,-32.2002 106.987,-29.3369 113.176,-37.9365 117.188,-32.2002"/>
</g>
<!-- \\WPT_Cart -->
<g id="node5" class="node"><title>\\WPT_Cart</title>
<polygon fill="none" stroke="black" points="330.5,-1114 259.5,-1114 259.5,-1078 330.5,-1078 330.5,-1114"/>
<text text-anchor="middle" x="295" y="-1093.2" font-family="Courier,monospace" font-size="11.00">WPT_Cart</text>
</g>
<!-- \\WPT_Event -->
<g id="node6" class="node"><title>\\WPT_Event</title>
<polygon fill="none" stroke="black" points="333.5,-1060 256.5,-1060 256.5,-1024 333.5,-1024 333.5,-1060"/>
<text text-anchor="middle" x="295" y="-1039.2" font-family="Courier,monospace" font-size="11.00">WPT_Event</text>
</g>
<!-- \\WPT_Events -->
<g id="node7" class="node"><title>\\WPT_Events</title>
<polygon fill="none" stroke="black" points="337,-1168 253,-1168 253,-1132 337,-1132 337,-1168"/>
<text text-anchor="middle" x="295" y="-1147.2" font-family="Courier,monospace" font-size="11.00">WPT_Events</text>
</g>
<!-- \\WPT_Listing -->
<g id="node12" class="node"><title>\\WPT_Listing</title>
<polygon fill="none" stroke="black" points="107.5,-1087 16.5,-1087 16.5,-1051 107.5,-1051 107.5,-1087"/>
<text text-anchor="middle" x="62" y="-1066.2" font-family="Courier,monospace" font-size="11.00">WPT_Listing</text>
</g>
<!-- \\WPT_Events&#45;&gt;\\WPT_Listing -->
<g id="edge2" class="edge"><title>\\WPT_Events&#45;&gt;\\WPT_Listing</title>
<path fill="none" stroke="black" d="M252.917,-1140.5C234.162,-1135.81 211.772,-1129.72 192,-1123 164.908,-1113.79 135.42,-1101.62 111.484,-1091.16"/>
<polygon fill="none" stroke="black" points="112.827,-1087.93 102.264,-1087.1 110.004,-1094.33 112.827,-1087.93"/>
</g>
<!-- \\WPT_Feeds -->
<g id="node8" class="node"><title>\\WPT_Feeds</title>
<polygon fill="none" stroke="black" points="333.5,-952 256.5,-952 256.5,-916 333.5,-916 333.5,-952"/>
<text text-anchor="middle" x="295" y="-931.2" font-family="Courier,monospace" font-size="11.00">WPT_Feeds</text>
</g>
<!-- \\WPT_Filter -->
<g id="node9" class="node"><title>\\WPT_Filter</title>
<polygon fill="none" stroke="black" points="337,-898 253,-898 253,-862 337,-862 337,-898"/>
<text text-anchor="middle" x="295" y="-877.2" font-family="Courier,monospace" font-size="11.00">WPT_Filter</text>
</g>
<!-- \\WPT_Frontend -->
<g id="node10" class="node"><title>\\WPT_Frontend</title>
<polygon fill="none" stroke="black" points="344,-844 246,-844 246,-808 344,-808 344,-844"/>
<text text-anchor="middle" x="295" y="-823.2" font-family="Courier,monospace" font-size="11.00">WPT_Frontend</text>
</g>
<!-- \\WPT_Importer -->
<g id="node11" class="node"><title>\\WPT_Importer</title>
<polygon fill="none" stroke="black" points="344,-790 246,-790 246,-754 344,-754 344,-790"/>
<text text-anchor="middle" x="295" y="-769.2" font-family="Courier,monospace" font-size="11.00">WPT_Importer</text>
</g>
<!-- \\WPT_Listing_Page -->
<g id="node13" class="node"><title>\\WPT_Listing_Page</title>
<polygon fill="none" stroke="black" points="357.5,-736 232.5,-736 232.5,-700 357.5,-700 357.5,-736"/>
<text text-anchor="middle" x="295" y="-715.2" font-family="Courier,monospace" font-size="11.00">WPT_Listing_Page</text>
</g>
<!-- \\WPT_Categories_Widget -->
<g id="node14" class="node"><title>\\WPT_Categories_Widget</title>
<polygon fill="none" stroke="black" points="374,-250 216,-250 216,-214 374,-214 374,-250"/>
<text text-anchor="middle" x="295" y="-229.2" font-family="Courier,monospace" font-size="11.00">WPT_Categories_Widget</text>
</g>
<!-- \\WPT_Categories_Widget&#45;&gt;\\WP_Widget -->
<g id="edge3" class="edge"><title>\\WPT_Categories_Widget&#45;&gt;\\WP_Widget</title>
<path fill="none" stroke="black" d="M215.914,-219.381C207.241,-215.721 199.021,-211.023 192,-205 131.273,-152.903 177.783,-95.3439 120,-40 118.157,-38.2345 116.156,-36.6065 114.045,-35.1058"/>
<polygon fill="none" stroke="black" points="115.818,-32.0879 105.446,-29.9268 112.206,-38.0843 115.818,-32.0879"/>
</g>
<!-- \\WPT_Order -->
<g id="node15" class="node"><title>\\WPT_Order</title>
<polygon fill="none" stroke="black" points="333.5,-628 256.5,-628 256.5,-592 333.5,-592 333.5,-628"/>
<text text-anchor="middle" x="295" y="-607.2" font-family="Courier,monospace" font-size="11.00">WPT_Order</text>
</g>
<!-- \\WPT_Production -->
<g id="node16" class="node"><title>\\WPT_Production</title>
<polygon fill="none" stroke="black" points="350.5,-574 239.5,-574 239.5,-538 350.5,-538 350.5,-574"/>
<text text-anchor="middle" x="295" y="-553.2" font-family="Courier,monospace" font-size="11.00">WPT_Production</text>
</g>
<!-- \\WPT_Productions -->
<g id="node17" class="node"><title>\\WPT_Productions</title>
<polygon fill="none" stroke="black" points="354,-1006 236,-1006 236,-970 354,-970 354,-1006"/>
<text text-anchor="middle" x="295" y="-985.2" font-family="Courier,monospace" font-size="11.00">WPT_Productions</text>
</g>
<!-- \\WPT_Productions&#45;&gt;\\WPT_Listing -->
<g id="edge4" class="edge"><title>\\WPT_Productions&#45;&gt;\\WPT_Listing</title>
<path fill="none" stroke="black" d="M235.867,-1001.91C221.419,-1005.77 206.049,-1010.23 192,-1015 164.908,-1024.21 135.42,-1036.38 111.484,-1046.84"/>
<polygon fill="none" stroke="black" points="110.004,-1043.67 102.264,-1050.9 112.827,-1050.07 110.004,-1043.67"/>
</g>
<!-- \\WPT_Season -->
<g id="node18" class="node"><title>\\WPT_Season</title>
<polygon fill="none" stroke="black" points="337,-466 253,-466 253,-430 337,-430 337,-466"/>
<text text-anchor="middle" x="295" y="-445.2" font-family="Courier,monospace" font-size="11.00">WPT_Season</text>
</g>
<!-- \\WPT_Setup -->
<g id="node19" class="node"><title>\\WPT_Setup</title>
<polygon fill="none" stroke="black" points="333.5,-412 256.5,-412 256.5,-376 333.5,-376 333.5,-412"/>
<text text-anchor="middle" x="295" y="-391.2" font-family="Courier,monospace" font-size="11.00">WPT_Setup</text>
</g>
<!-- \\WPT_Transient -->
<g id="node20" class="node"><title>\\WPT_Transient</title>
<polygon fill="none" stroke="black" points="347,-358 243,-358 243,-322 347,-322 347,-358"/>
<text text-anchor="middle" x="295" y="-337.2" font-family="Courier,monospace" font-size="11.00">WPT_Transient</text>
</g>
<!-- \\WPT_Events_Widget -->
<g id="node21" class="node"><title>\\WPT_Events_Widget</title>
<polygon fill="none" stroke="black" points="360.5,-142 229.5,-142 229.5,-106 360.5,-106 360.5,-142"/>
<text text-anchor="middle" x="295" y="-121.2" font-family="Courier,monospace" font-size="11.00">WPT_Events_Widget</text>
</g>
<!-- \\WPT_Events_Widget&#45;&gt;\\WP_Widget -->
<g id="edge5" class="edge"><title>\\WPT_Events_Widget&#45;&gt;\\WP_Widget</title>
<path fill="none" stroke="black" d="M229.406,-111.201C216.654,-107.493 203.63,-102.823 192,-97 155.505,-78.7271 155.44,-60.244 120,-40 117.145,-38.369 114.145,-36.8104 111.078,-35.3306"/>
<polygon fill="none" stroke="black" points="112.307,-32.0455 101.751,-31.1339 109.434,-38.429 112.307,-32.0455"/>
</g>
<!-- \\WPT_Production_Widget -->
<g id="node22" class="node"><title>\\WPT_Production_Widget</title>
<polygon fill="none" stroke="black" points="374,-88 216,-88 216,-52 374,-52 374,-88"/>
<text text-anchor="middle" x="295" y="-67.2" font-family="Courier,monospace" font-size="11.00">WPT_Production_Widget</text>
</g>
<!-- \\WPT_Production_Widget&#45;&gt;\\WP_Widget -->
<g id="edge6" class="edge"><title>\\WPT_Production_Widget&#45;&gt;\\WP_Widget</title>
<path fill="none" stroke="black" d="M215.794,-52.3952C184.181,-45.2789 148.393,-37.2227 119.404,-30.6969"/>
<polygon fill="none" stroke="black" points="119.976,-27.2382 109.451,-28.4565 118.438,-34.0673 119.976,-27.2382"/>
</g>
<!-- \\WPT_Production_Events_Widget -->
<g id="node23" class="node"><title>\\WPT_Production_Events_Widget</title>
<polygon fill="none" stroke="black" points="398,-682 192,-682 192,-646 398,-646 398,-682"/>
<text text-anchor="middle" x="295" y="-661.2" font-family="Courier,monospace" font-size="11.00">WPT_Production_Events_Widget</text>
</g>
<!-- \\WPT_Production_Events_Widget&#45;&gt;\\WP_Widget -->
<g id="edge7" class="edge"><title>\\WPT_Production_Events_Widget&#45;&gt;\\WP_Widget</title>
<path fill="none" stroke="black" d="M201.631,-645.839C198.127,-643.249 194.886,-640.317 192,-637 16.5757,-435.376 284.12,-250.928 120,-40 118.73,-38.3675 117.322,-36.8561 115.806,-35.4568"/>
<polygon fill="none" stroke="black" points="117.587,-32.4236 107.447,-29.3525 113.459,-38.0767 117.587,-32.4236"/>
</g>
<!-- \\WPT_Productions_Widget -->
<g id="node24" class="node"><title>\\WPT_Productions_Widget</title>
<polygon fill="none" stroke="black" points="377.5,-304 212.5,-304 212.5,-268 377.5,-268 377.5,-304"/>
<text text-anchor="middle" x="295" y="-283.2" font-family="Courier,monospace" font-size="11.00">WPT_Productions_Widget</text>
</g>
<!-- \\WPT_Productions_Widget&#45;&gt;\\WP_Widget -->
<g id="edge8" class="edge"><title>\\WPT_Productions_Widget&#45;&gt;\\WP_Widget</title>
<path fill="none" stroke="black" d="M212.32,-272.614C204.882,-269.056 197.931,-264.592 192,-259 117.45,-188.714 190.589,-114.263 120,-40 118.397,-38.3134 116.65,-36.7543 114.795,-35.3132"/>
<polygon fill="none" stroke="black" points="116.396,-32.1812 106.09,-29.7216 112.612,-38.0709 116.396,-32.1812"/>
</g>
<!-- \\WPT_Cart_Widget -->
<g id="node25" class="node"><title>\\WPT_Cart_Widget</title>
<polygon fill="none" stroke="black" points="354,-196 236,-196 236,-160 354,-160 354,-196"/>
<text text-anchor="middle" x="295" y="-175.2" font-family="Courier,monospace" font-size="11.00">WPT_Cart_Widget</text>
</g>
<!-- \\WPT_Cart_Widget&#45;&gt;\\WP_Widget -->
<g id="edge9" class="edge"><title>\\WPT_Cart_Widget&#45;&gt;\\WP_Widget</title>
<path fill="none" stroke="black" d="M235.941,-170.393C220.636,-166.395 204.831,-160.298 192,-151 144.384,-116.496 165.655,-77.0598 120,-40 117.946,-38.3329 115.752,-36.7818 113.463,-35.34"/>
<polygon fill="none" stroke="black" points="114.723,-32.0395 104.271,-30.306 111.361,-38.1791 114.723,-32.0395"/>
</g>
</g>
</svg>
